<svg xmlns="http://www.w3.org/2000/svg" xmlns:xlink="http://www.w3.org/1999/xlink" contentStyleType="text/css" data-diagram-type="MINDMAP" height="553px" preserveAspectRatio="none" style="width:488px;height:553px;background:#FFFFFF;" version="1.1" viewBox="0 0 488 553" width="488px" zoomAndPan="magnify"><title>veux - AOSP partitions layout</title><defs/><g><g class="title" data-source-line="2"><text fill="#000000" font-family="sans-serif" font-size="14" font-weight="bold" lengthAdjust="spacing" textLength="232.9277" x="126.4072" y="32.9951">veux - AOSP partitions layout</text></g><rect fill="#F1F1F1" height="36.2969" rx="12.5" ry="12.5" style="stroke:#181818;stroke-width:1.5;" width="51.5068" x="10" y="113.5938"/><text fill="#000000" font-family="sans-serif" font-size="14" lengthAdjust="spacing" textLength="31.5068" x="20" y="136.5889">boot</text><rect fill="#F1F1F1" height="36.2969" rx="12.5" ry="12.5" style="stroke:#181818;stroke-width:1.5;" width="90.9639" x="111.5068" y="57.2969"/><text fill="#000000" font-family="sans-serif" font-size="14" lengthAdjust="spacing" textLength="70.9639" x="121.5068" y="80.292">header v3</text><path d="M61.5068,131.7422 L71.5068,131.7422 C86.5068,131.7422 86.5068,75.4453 101.5068,75.4453 L111.5068,75.4453" fill="none" style="stroke:#181818;stroke-width:1;"/><rect fill="#F1F1F1" height="36.2969" rx="12.5" ry="12.5" style="stroke:#181818;stroke-width:1.5;" width="51.5342" x="111.5068" y="141.7422"/><text fill="#000000" font-family="sans-serif" font-size="14" lengthAdjust="spacing" textLength="31.5342" x="121.5068" y="164.7373">data</text><rect fill="#ADD8E6" height="36.2969" rx="12.5" ry="12.5" style="stroke:#181818;stroke-width:1.5;" width="63.8525" x="213.041" y="113.5938"/><text fill="#000000" font-family="sans-serif" font-size="14" lengthAdjust="spacing" textLength="43.8525" x="223.041" y="136.5889">kernel</text><path d="M163.041,159.8906 L173.041,159.8906 C188.041,159.8906 188.041,131.7422 203.041,131.7422 L213.041,131.7422" fill="none" style="stroke:#181818;stroke-width:1;"/><rect fill="#F1F1F1" height="36.2969" rx="12.5" ry="12.5" style="stroke:#181818;stroke-width:1.5;" width="76.1504" x="213.041" y="169.8906"/><text fill="#000000" font-family="sans-serif" font-size="14" lengthAdjust="spacing" textLength="56.1504" x="223.041" y="192.8857">ramdisk</text><rect fill="#F1F1F1" height="36.2969" rx="12.5" ry="12.5" style="stroke:#181818;stroke-width:1.5;" width="42.1416" x="339.1914" y="169.8906"/><text fill="#000000" font-family="sans-serif" font-size="14" lengthAdjust="spacing" textLength="22.1416" x="349.1914" y="192.8857">init</text><path d="M289.1914,188.0391 L299.1914,188.0391 C314.1914,188.0391 314.1914,188.0391 329.1914,188.0391 L339.1914,188.0391" fill="none" style="stroke:#181818;stroke-width:1;"/><path d="M163.041,159.8906 L173.041,159.8906 C188.041,159.8906 188.041,188.0391 203.041,188.0391 L213.041,188.0391" fill="none" style="stroke:#181818;stroke-width:1;"/><path d="M61.5068,131.7422 L71.5068,131.7422 C86.5068,131.7422 86.5068,159.8906 101.5068,159.8906 L111.5068,159.8906" fill="none" style="stroke:#181818;stroke-width:1;"/><rect fill="#F1F1F1" height="36.2969" rx="12.5" ry="12.5" style="stroke:#181818;stroke-width:1.5;" width="107.4863" x="10" y="296.5586"/><text fill="#000000" font-family="sans-serif" font-size="14" lengthAdjust="spacing" textLength="87.4863" x="20" y="319.5537">vendor_boot</text><rect fill="#F1F1F1" height="36.2969" rx="12.5" ry="12.5" style="stroke:#181818;stroke-width:1.5;" width="90.9639" x="167.4863" y="226.1875"/><text fill="#000000" font-family="sans-serif" font-size="14" lengthAdjust="spacing" textLength="70.9639" x="177.4863" y="249.1826">header v3</text><rect fill="#ADD8E6" height="36.2969" rx="12.5" ry="12.5" style="stroke:#181818;stroke-width:1.5;" width="75.4873" x="308.4502" y="226.1875"/><text fill="#000000" font-family="sans-serif" font-size="14" lengthAdjust="spacing" textLength="55.4873" x="318.4502" y="249.1826">cmdline</text><path d="M258.4502,244.3359 L268.4502,244.3359 C283.4502,244.3359 283.4502,244.3359 298.4502,244.3359 L308.4502,244.3359" fill="none" style="stroke:#181818;stroke-width:1;"/><path d="M117.4863,314.707 L127.4863,314.707 C142.4863,314.707 142.4863,244.3359 157.4863,244.3359 L167.4863,244.3359" fill="none" style="stroke:#181818;stroke-width:1;"/><rect fill="#F1F1F1" height="36.2969" rx="12.5" ry="12.5" style="stroke:#181818;stroke-width:1.5;" width="51.5342" x="167.4863" y="324.707"/><text fill="#000000" font-family="sans-serif" font-size="14" lengthAdjust="spacing" textLength="31.5342" x="177.4863" y="347.7021">data</text><rect fill="#ADD8E6" height="36.2969" rx="12.5" ry="12.5" style="stroke:#181818;stroke-width:1.5;" width="43.2627" x="269.0205" y="282.4844"/><text fill="#000000" font-family="sans-serif" font-size="14" lengthAdjust="spacing" textLength="23.2627" x="279.0205" y="305.4795">dtb</text><path d="M219.0205,342.8555 L229.0205,342.8555 C244.0205,342.8555 244.0205,300.6328 259.0205,300.6328 L269.0205,300.6328" fill="none" style="stroke:#181818;stroke-width:1;"/><rect fill="#F1F1F1" height="36.2969" rx="12.5" ry="12.5" style="stroke:#181818;stroke-width:1.5;" width="76.1504" x="269.0205" y="338.7813"/><text fill="#000000" font-family="sans-serif" font-size="14" lengthAdjust="spacing" textLength="56.1504" x="279.0205" y="361.7764">ramdisk</text><rect fill="#FFA500" height="36.2969" rx="12.5" ry="12.5" style="stroke:#181818;stroke-width:1.5;" width="81.5713" x="395.1709" y="310.6328"/><text fill="#000000" font-family="sans-serif" font-size="14" lengthAdjust="spacing" textLength="61.5713" x="405.1709" y="333.6279">recovery</text><path d="M345.1709,356.9297 L355.1709,356.9297 C370.1709,356.9297 370.1709,328.7813 385.1709,328.7813 L395.1709,328.7813" fill="none" style="stroke:#181818;stroke-width:1;"/><rect fill="#F1F1F1" height="36.2969" rx="12.5" ry="12.5" style="stroke:#181818;stroke-width:1.5;" width="55.1777" x="395.1709" y="366.9297"/><text fill="#000000" font-family="sans-serif" font-size="14" lengthAdjust="spacing" textLength="35.1777" x="405.1709" y="389.9248">fstab</text><path d="M345.1709,356.9297 L355.1709,356.9297 C370.1709,356.9297 370.1709,385.0781 385.1709,385.0781 L395.1709,385.0781" fill="none" style="stroke:#181818;stroke-width:1;"/><path d="M219.0205,342.8555 L229.0205,342.8555 C244.0205,342.8555 244.0205,356.9297 259.0205,356.9297 L269.0205,356.9297" fill="none" style="stroke:#181818;stroke-width:1;"/><path d="M117.4863,314.707 L127.4863,314.707 C142.4863,314.707 142.4863,342.8555 157.4863,342.8555 L167.4863,342.8555" fill="none" style="stroke:#181818;stroke-width:1;"/><rect fill="#F1F1F1" height="36.2969" rx="12.5" ry="12.5" style="stroke:#181818;stroke-width:1.5;" width="51.8281" x="10" y="423.2266"/><text fill="#000000" font-family="sans-serif" font-size="14" lengthAdjust="spacing" textLength="31.8281" x="20" y="446.2217">dtbo</text><rect fill="#F1F1F1" height="36.2969" rx="12.5" ry="12.5" style="stroke:#181818;stroke-width:1.5;" width="88.373" x="111.8281" y="423.2266"/><text fill="#000000" font-family="sans-serif" font-size="14" lengthAdjust="spacing" textLength="68.373" x="121.8281" y="446.2217">&lt;empty&gt;</text><path d="M61.8281,441.375 L71.8281,441.375 C86.8281,441.375 86.8281,441.375 101.8281,441.375 L111.8281,441.375" fill="none" style="stroke:#181818;stroke-width:1;"/><g class="legend" data-source-line="23"><rect fill="#DDDDDD" height="46.5938" rx="7.5" ry="7.5" style="stroke:#000000;stroke-width:1;" width="132.2881" x="331.4541" y="481.5234"/><rect fill="#FFA500" height="16.2969" style="stroke:none;stroke-width:1;" width="122.2881" x="336.4541" y="488.5234"/><text fill="#000000" font-family="sans-serif" font-size="14" lengthAdjust="spacing" textLength="65.543" x="340.9043" y="501.5186">Recovery</text><rect fill="#ADD8E6" height="16.2969" style="stroke:none;stroke-width:1;" width="122.2881" x="336.4541" y="504.8203"/><text fill="#000000" font-family="sans-serif" font-size="14" lengthAdjust="spacing" textLength="117.8379" x="340.9043" y="517.8154">Kernel resources</text><line style="stroke:#000000;stroke-width:1;" x1="336.4541" x2="458.7422" y1="488.5234" y2="488.5234"/><line style="stroke:#000000;stroke-width:1;" x1="336.4541" x2="458.7422" y1="504.8203" y2="504.8203"/><line style="stroke:#000000;stroke-width:1;" x1="336.4541" x2="458.7422" y1="521.1172" y2="521.1172"/><line style="stroke:#000000;stroke-width:1;" x1="336.4541" x2="336.4541" y1="488.5234" y2="521.1172"/><line style="stroke:#000000;stroke-width:1;" x1="458.7422" x2="458.7422" y1="488.5234" y2="521.1172"/></g><!--SRC=[TP5RImCn48NVvrSC-A8B5UiDALAy2xMbnLfVYaXsTrn3ivCbExjQw8ztOhqWwaikCpdVoKbEQZ51IijvQIe0iU88MsfUiOEdu-a4AsrRiPvhT6Rf6m58CFLU84dmcKnE0TkzkCcD69sJ-OQpnREahg47N51WSh6CmPIvhHTndQ1b-qvgYNCV7ly2_WHbPUuiqxz6kQI_NEORFXWkj1ieyos5vThyIKEdqLr5FXAFgQnasGTmLEY5C4Gkh8u_z7sy_T2lOl7BjOytx_4KN_icP5IlGELh2C29ZbylEt66PJOQQk9GwtDYTtjtP_TWUoybCTtkvemNx5yOCrzMLlz0R4bRi7az6UAQZHfBWasR-1bRC32jmTk6uxaUZYlYmSNDPm4lkRN1SqaiCBWVVHyutE-SMS4f1Rq7te_WWfvCuqGLcSyj5psStLrrZc2emHjJA9iOphromr9xqpS0]--></g></svg>