<svg xmlns="http://www.w3.org/2000/svg" xmlns:xlink="http://www.w3.org/1999/xlink" contentStyleType="text/css" data-diagram-type="MINDMAP" height="581px" preserveAspectRatio="none" style="width:486px;height:581px;background:#FFFFFF;" version="1.1" viewBox="0 0 486 581" width="486px" zoomAndPan="magnify"><title>veux - MIUI/HyperOS partitions layout</title><defs/><g><g class="title" data-source-line="2"><text fill="#000000" font-family="sans-serif" font-size="14" font-weight="bold" lengthAdjust="spacing" textLength="299.9268" x="92.002" y="32.9951">veux - MIUI/HyperOS partitions layout</text></g><rect fill="#F1F1F1" height="36.2969" rx="12.5" ry="12.5" style="stroke:#181818;stroke-width:1.5;" width="51.5068" x="10" y="127.668"/><text fill="#000000" font-family="sans-serif" font-size="14" lengthAdjust="spacing" textLength="31.5068" x="20" y="150.6631">boot</text><rect fill="#F1F1F1" height="36.2969" rx="12.5" ry="12.5" style="stroke:#181818;stroke-width:1.5;" width="90.9639" x="111.5068" y="57.2969"/><text fill="#000000" font-family="sans-serif" font-size="14" lengthAdjust="spacing" textLength="70.9639" x="121.5068" y="80.292">header v3</text><path d="M61.5068,145.8164 L71.5068,145.8164 C86.5068,145.8164 86.5068,75.4453 101.5068,75.4453 L111.5068,75.4453" fill="none" style="stroke:#181818;stroke-width:1;"/><rect fill="#F1F1F1" height="36.2969" rx="12.5" ry="12.5" style="stroke:#181818;stroke-width:1.5;" width="51.5342" x="111.5068" y="155.8164"/><text fill="#000000" font-family="sans-serif" font-size="14" lengthAdjust="spacing" textLength="31.5342" x="121.5068" y="178.8115">data</text><rect fill="#ADD8E6" height="36.2969" rx="12.5" ry="12.5" style="stroke:#181818;stroke-width:1.5;" width="63.8525" x="213.041" y="113.5938"/><text fill="#000000" font-family="sans-serif" font-size="14" lengthAdjust="spacing" textLength="43.8525" x="223.041" y="136.5889">kernel</text><path d="M163.041,173.9648 L173.041,173.9648 C188.041,173.9648 188.041,131.7422 203.041,131.7422 L213.041,131.7422" fill="none" style="stroke:#181818;stroke-width:1;"/><rect fill="#F1F1F1" height="36.2969" rx="12.5" ry="12.5" style="stroke:#181818;stroke-width:1.5;" width="76.1504" x="213.041" y="169.8906"/><text fill="#000000" font-family="sans-serif" font-size="14" lengthAdjust="spacing" textLength="56.1504" x="223.041" y="192.8857">ramdisk</text><rect fill="#F1F1F1" height="36.2969" rx="12.5" ry="12.5" style="stroke:#181818;stroke-width:1.5;" width="42.1416" x="339.1914" y="141.7422"/><text fill="#000000" font-family="sans-serif" font-size="14" lengthAdjust="spacing" textLength="22.1416" x="349.1914" y="164.7373">init</text><path d="M289.1914,188.0391 L299.1914,188.0391 C314.1914,188.0391 314.1914,159.8906 329.1914,159.8906 L339.1914,159.8906" fill="none" style="stroke:#181818;stroke-width:1;"/><rect fill="#FFA500" height="36.2969" rx="12.5" ry="12.5" style="stroke:#181818;stroke-width:1.5;" width="81.5713" x="339.1914" y="198.0391"/><text fill="#000000" font-family="sans-serif" font-size="14" lengthAdjust="spacing" textLength="61.5713" x="349.1914" y="221.0342">recovery</text><path d="M289.1914,188.0391 L299.1914,188.0391 C314.1914,188.0391 314.1914,216.1875 329.1914,216.1875 L339.1914,216.1875" fill="none" style="stroke:#181818;stroke-width:1;"/><path d="M163.041,173.9648 L173.041,173.9648 C188.041,173.9648 188.041,188.0391 203.041,188.0391 L213.041,188.0391" fill="none" style="stroke:#181818;stroke-width:1;"/><path d="M61.5068,145.8164 L71.5068,145.8164 C86.5068,145.8164 86.5068,173.9648 101.5068,173.9648 L111.5068,173.9648" fill="none" style="stroke:#181818;stroke-width:1;"/><rect fill="#F1F1F1" height="36.2969" rx="12.5" ry="12.5" style="stroke:#181818;stroke-width:1.5;" width="107.4863" x="10" y="324.707"/><text fill="#000000" font-family="sans-serif" font-size="14" lengthAdjust="spacing" textLength="87.4863" x="20" y="347.7021">vendor_boot</text><rect fill="#F1F1F1" height="36.2969" rx="12.5" ry="12.5" style="stroke:#181818;stroke-width:1.5;" width="90.9639" x="167.4863" y="254.3359"/><text fill="#000000" font-family="sans-serif" font-size="14" lengthAdjust="spacing" textLength="70.9639" x="177.4863" y="277.3311">header v3</text><rect fill="#ADD8E6" height="36.2969" rx="12.5" ry="12.5" style="stroke:#181818;stroke-width:1.5;" width="75.4873" x="308.4502" y="254.3359"/><text fill="#000000" font-family="sans-serif" font-size="14" lengthAdjust="spacing" textLength="55.4873" x="318.4502" y="277.3311">cmdline</text><path d="M258.4502,272.4844 L268.4502,272.4844 C283.4502,272.4844 283.4502,272.4844 298.4502,272.4844 L308.4502,272.4844" fill="none" style="stroke:#181818;stroke-width:1;"/><path d="M117.4863,342.8555 L127.4863,342.8555 C142.4863,342.8555 142.4863,272.4844 157.4863,272.4844 L167.4863,272.4844" fill="none" style="stroke:#181818;stroke-width:1;"/><rect fill="#F1F1F1" height="36.2969" rx="12.5" ry="12.5" style="stroke:#181818;stroke-width:1.5;" width="51.5342" x="167.4863" y="352.8555"/><text fill="#000000" font-family="sans-serif" font-size="14" lengthAdjust="spacing" textLength="31.5342" x="177.4863" y="375.8506">data</text><rect fill="#ADD8E6" height="36.2969" rx="12.5" ry="12.5" style="stroke:#181818;stroke-width:1.5;" width="43.2627" x="269.0205" y="310.6328"/><text fill="#000000" font-family="sans-serif" font-size="14" lengthAdjust="spacing" textLength="23.2627" x="279.0205" y="333.6279">dtb</text><path d="M219.0205,371.0039 L229.0205,371.0039 C244.0205,371.0039 244.0205,328.7813 259.0205,328.7813 L269.0205,328.7813" fill="none" style="stroke:#181818;stroke-width:1;"/><rect fill="#F1F1F1" height="36.2969" rx="12.5" ry="12.5" style="stroke:#181818;stroke-width:1.5;" width="76.1504" x="269.0205" y="366.9297"/><text fill="#000000" font-family="sans-serif" font-size="14" lengthAdjust="spacing" textLength="56.1504" x="279.0205" y="389.9248">ramdisk</text><rect fill="#ADD8E6" height="36.2969" rx="12.5" ry="12.5" style="stroke:#181818;stroke-width:1.5;" width="79.7598" x="395.1709" y="338.7813"/><text fill="#000000" font-family="sans-serif" font-size="14" lengthAdjust="spacing" textLength="59.7598" x="405.1709" y="361.7764">modules</text><path d="M345.1709,385.0781 L355.1709,385.0781 C370.1709,385.0781 370.1709,356.9297 385.1709,356.9297 L395.1709,356.9297" fill="none" style="stroke:#181818;stroke-width:1;"/><rect fill="#F1F1F1" height="36.2969" rx="12.5" ry="12.5" style="stroke:#181818;stroke-width:1.5;" width="55.1777" x="395.1709" y="395.0781"/><text fill="#000000" font-family="sans-serif" font-size="14" lengthAdjust="spacing" textLength="35.1777" x="405.1709" y="418.0732">fstab</text><path d="M345.1709,385.0781 L355.1709,385.0781 C370.1709,385.0781 370.1709,413.2266 385.1709,413.2266 L395.1709,413.2266" fill="none" style="stroke:#181818;stroke-width:1;"/><path d="M219.0205,371.0039 L229.0205,371.0039 C244.0205,371.0039 244.0205,385.0781 259.0205,385.0781 L269.0205,385.0781" fill="none" style="stroke:#181818;stroke-width:1;"/><path d="M117.4863,342.8555 L127.4863,342.8555 C142.4863,342.8555 142.4863,371.0039 157.4863,371.0039 L167.4863,371.0039" fill="none" style="stroke:#181818;stroke-width:1;"/><rect fill="#F1F1F1" height="36.2969" rx="12.5" ry="12.5" style="stroke:#181818;stroke-width:1.5;" width="51.8281" x="10" y="451.375"/><text fill="#000000" font-family="sans-serif" font-size="14" lengthAdjust="spacing" textLength="31.8281" x="20" y="474.3701">dtbo</text><rect fill="#ADD8E6" height="36.2969" rx="12.5" ry="12.5" style="stroke:#181818;stroke-width:1.5;" width="99.6865" x="111.8281" y="451.375"/><text fill="#000000" font-family="sans-serif" font-size="14" lengthAdjust="spacing" textLength="79.6865" x="121.8281" y="474.3701">dtb overlay</text><path d="M61.8281,469.5234 L71.8281,469.5234 C86.8281,469.5234 86.8281,469.5234 101.8281,469.5234 L111.8281,469.5234" fill="none" style="stroke:#181818;stroke-width:1;"/><g class="legend" data-source-line="24"><rect fill="#DDDDDD" height="46.5938" rx="7.5" ry="7.5" style="stroke:#000000;stroke-width:1;" width="132.2881" x="329.6426" y="509.6719"/><rect fill="#FFA500" height="16.2969" style="stroke:none;stroke-width:1;" width="122.2881" x="334.6426" y="516.6719"/><text fill="#000000" font-family="sans-serif" font-size="14" lengthAdjust="spacing" textLength="65.543" x="339.0928" y="529.667">Recovery</text><rect fill="#ADD8E6" height="16.2969" style="stroke:none;stroke-width:1;" width="122.2881" x="334.6426" y="532.9688"/><text fill="#000000" font-family="sans-serif" font-size="14" lengthAdjust="spacing" textLength="117.8379" x="339.0928" y="545.9639">Kernel resources</text><line style="stroke:#000000;stroke-width:1;" x1="334.6426" x2="456.9307" y1="516.6719" y2="516.6719"/><line style="stroke:#000000;stroke-width:1;" x1="334.6426" x2="456.9307" y1="532.9688" y2="532.9688"/><line style="stroke:#000000;stroke-width:1;" x1="334.6426" x2="456.9307" y1="549.2656" y2="549.2656"/><line style="stroke:#000000;stroke-width:1;" x1="334.6426" x2="334.6426" y1="516.6719" y2="549.2656"/><line style="stroke:#000000;stroke-width:1;" x1="456.9307" x2="456.9307" y1="516.6719" y2="549.2656"/></g><!--SRC=[TL5TJ-Cm47pVNx4IBn2ft9KldH122BWFIYiGfRmWX9nu2LQTTUIi0vNwuszDWHE2UqdizUpCpknH9oPAuzWsfWKG9vwmf_IC0voSpSw-_Lcq52-cs2hCYGlSeJUBa0IWm384WQB0HpAM8lRR-MAD6FqNjslUrOzI-aHtEAV8v7CPesciw-RvNA1Z9o-dsxKG3TSAZLI5dk8Y2_J4DiJxhtG-ybUDzOxfl_fMoa_Y7m1DiCbJjvhgGLCfixws1VXCXNb0ZG70KwqZOipFi3nuDN68Lwycbhdutdo8voyvgCSkf5XHjmHjNv407EdtVHMNth3C9cFD87QQEmutjxvlxMvkboHcE5oVyPp34sCLcjRfqiGrj07hlo_7kE96DIhHbIblRGD6fZTubJZZzl6Y9HwTdhyLy2VtBWPkY0L6DvD_WBsTmR4Jd5BKEV1c0gVqO98NxQY2TLplu-pwr-07ZDLuChLo4yD9KDwuqBVfNm00]--></g></svg>